<?xml version="1.0"?>
<svg xmlns="http://www.w3.org/2000/svg" height="512px" viewBox="0 -60 512 512" width="512px" class=""><g><path d="m28.878906 104.617188h8.488282v202.707031c0 4.144531 3.355468 7.5 7.5 7.5 4.140624 0 7.5-3.355469 7.5-7.5v-202.707031h430.753906c15.925781 0 28.878906-12.945313 28.878906-28.855469 0-15.910157-12.953125-28.855469-28.878906-28.855469h-52.941406v-24.429688c0-12.394531-10.089844-22.476562-22.492188-22.476562h-77.425781c-12.402344 0-22.492188 10.082031-22.492188 22.476562v24.429688h-38.410156c-4.140625 0-7.5 3.359375-7.5 7.5 0 4.144531 3.359375 7.5 7.5 7.5h213.761719c7.652344 0 13.878906 6.214844 13.878906 13.855469s-6.226562 13.855469-13.878906 13.855469h-454.242188c-7.652344 0-13.878906-6.214844-13.878906-13.855469s6.226562-13.855469 13.878906-13.855469h205.722656c4.140626 0 7.5-3.355469 7.5-7.5 0-4.140625-3.359374-7.5-7.5-7.5h-30.371093v-24.429688c0-12.394531-10.089844-22.476562-22.492188-22.476562h-77.425781c-12.402344 0-22.492188 10.082031-22.492188 22.476562v24.429688h-52.941406c-15.925781 0-28.878906 12.945312-28.878906 28.855469 0 15.910156 12.953125 28.855469 28.878906 28.855469zm293.890625-82.140626c0-4.121093 3.359375-7.476562 7.492188-7.476562h77.425781c4.132812 0 7.492188 3.355469 7.492188 7.476562v24.429688h-92.410157zm-225.949219 0c0-4.121093 3.359376-7.476562 7.492188-7.476562h77.425781c4.132813 0 7.492188 3.355469 7.492188 7.476562v24.429688h-92.410157zm0 0" data-original="#000000" class="active-path" data-old_color="#000000" fill="#FFFFFF"/><path d="m483.144531 333.761719h-8.511719v-202.710938c0-4.140625-3.355468-7.5-7.5-7.5-4.140624 0-7.5 3.359375-7.5 7.5v202.710938h-430.777343c-15.910157 0-28.855469 12.941406-28.855469 28.855469 0 15.910156 12.945312 28.855468 28.855469 28.855468h454.289062c15.910157 0 28.855469-12.945312 28.855469-28.855468 0-15.914063-12.945312-28.855469-28.855469-28.855469zm0 42.710937h-454.289062c-7.640625 0-13.855469-6.214844-13.855469-13.855468 0-7.640626 6.214844-13.855469 13.855469-13.855469h454.289062c7.640625 0 13.855469 6.214843 13.855469 13.855469 0 7.640624-6.214844 13.855468-13.855469 13.855468zm0 0" data-original="#000000" class="active-path" data-old_color="#000000" fill="#FFFFFF"/><path d="m107.984375 203.652344c-10.550781 0-19.132813 8.582031-19.132813 19.132812 0 10.550782 8.582032 19.136719 19.132813 19.136719h84.144531c10.550782 0 19.132813-8.585937 19.132813-19.136719 0-10.550781-8.582031-19.132812-19.132813-19.132812zm88.277344 19.132812c0 2.242188-1.890625 4.136719-4.132813 4.136719h-84.144531c-2.238281 0-4.132813-1.894531-4.132813-4.136719 0-2.238281 1.894532-4.132812 4.132813-4.132812h84.144531c2.242188 0 4.132813 1.894531 4.132813 4.132812zm0 0" data-original="#000000" class="active-path" data-old_color="#000000" fill="#FFFFFF"/><path d="m361.941406 283.929688c10.558594 0 19.148438-8.582032 19.148438-19.132813v-22.875h22.910156c10.558594 0 19.144531-8.585937 19.144531-19.136719 0-10.550781-8.585937-19.132812-19.144531-19.132812h-22.910156v-22.875c0-10.550782-8.589844-19.132813-19.148438-19.132813-10.554687 0-19.144531 8.582031-19.144531 19.132813v22.875h-22.914063c-10.558593 0-19.144531 8.582031-19.144531 19.132812 0 10.550782 8.589844 19.136719 19.144531 19.136719h22.914063v22.875c0 10.550781 8.589844 19.132813 19.144531 19.132813zm-42.058594-57.007813c-2.246093 0-4.144531-1.894531-4.144531-4.136719 0-2.238281 1.898438-4.132812 4.144531-4.132812h30.414063c4.140625 0 7.5-3.355469 7.5-7.5v-30.375c0-2.242188 1.898437-4.132813 4.144531-4.132813 2.25 0 4.148438 1.890625 4.148438 4.132813v30.375c0 4.144531 3.355468 7.5 7.5 7.5h30.410156c2.246094 0 4.144531 1.894531 4.144531 4.132812 0 2.242188-1.898437 4.136719-4.144531 4.136719h-30.410156c-4.144532 0-7.5 3.355469-7.5 7.5v30.375c0 2.238281-1.898438 4.132813-4.148438 4.132813-2.246094 0-4.144531-1.894532-4.144531-4.132813v-30.375c0-4.144531-3.359375-7.5-7.5-7.5zm0 0" data-original="#000000" class="active-path" data-old_color="#000000" fill="#FFFFFF"/></g> </svg>
