<?xml version="1.0"?>
<svg xmlns="http://www.w3.org/2000/svg" height="512px" viewBox="-68 1 511 511.999" width="512px"><g><path d="m188.359375 166.0625h.003906c4.144531 0 7.5-3.359375 7.496094-7.503906l-.085937-151.0625c-.003907-4.140625-3.359376-7.496094-7.5-7.496094h-.003907c-4.144531.00390625-7.5 3.363281-7.496093 7.503906l.085937 151.0625c.003906 4.144532 3.359375 7.496094 7.5 7.496094zm0 0" data-original="#000000" class="active-path" data-old_color="#000000" fill="#181A82"/><path d="m258.691406 272.15625v-.132812c0-20.144532-12.449218-37.421876-30.046875-44.558594v-18.6875c0-14.519532-11.800781-26.328125-26.304687-26.328125h-29.457032c-14.503906 0-26.304687 11.8125-26.304687 26.328125v18.6875c-17.597656 7.136718-30.046875 24.414062-30.046875 44.558594v.132812c-65.730469 10.839844-116.03125 68.121094-116.03125 136.953125v5.964844c0 7.453125 6.058594 13.515625 13.503906 13.515625h45.554688c19.414062 44.988281 60.984375 76.617187 109.667968 83.042968.332032.042969.664063.0625.988282.0625 3.707031 0 6.929687-2.746093 7.425781-6.519531.542969-4.105469-2.347656-7.875-6.453125-8.414062-41.257812-5.445313-76.78125-31.191407-95.097656-68.171875h61.804687c4.144531 0 7.5-3.355469 7.5-7.5 0-4.144532-3.355469-7.5-7.5-7.5h-122.394531v-4.480469c0-68.269531 55.464844-123.8125 123.644531-123.8125h96.933594c68.179687 0 123.644531 55.542969 123.644531 123.8125v4.480469h-189.464844c-4.140624 0-7.496093 3.355468-7.496093 7.5 0 4.144531 3.355469 7.5 7.496093 7.5h128.875c-18.6875 37.8125-55.105468 63.6875-97.441406 68.457031-4.117187.460937-7.074218 4.175781-6.613281 8.292969.433594 3.828125 3.679687 6.660156 7.445313 6.660156.28125 0 .5625-.015625.847656-.050781 25.441406-2.863281 49.59375-12.722657 69.84375-28.507813 18.570312-14.476562 33.164062-33.359375 42.449218-54.851562h45.554688c7.445312 0 13.503906-6.0625 13.503906-13.515625v-5.96875c0-68.828125-50.300781-126.109375-116.03125-136.949219zm-97.113281-63.378906c0-6.246094 5.070313-11.328125 11.304687-11.328125h29.460938c6.230469 0 11.300781 5.082031 11.300781 11.328125v15.28125c-.980469-.0625-1.972656-.101563-2.972656-.101563h-46.121094c-1 0-1.988281.039063-2.972656.101563zm-22.433594 61.519531c-2.542969 0-5.066406.074219-7.574219.210937.652344-14.375 10.511719-26.382812 23.796876-30.242187.453124-.078125.890624-.199219 1.308593-.355469 2.527344-.621094 5.164063-.957031 7.875-.957031h46.121094c2.714844 0 5.351563.335937 7.875.957031.421875.15625.855469.277344 1.308594.355469 13.285156 3.859375 23.144531 15.863281 23.796875 30.242187-2.507813-.136718-5.03125-.210937-7.570313-.210937zm0 0" data-original="#000000" class="active-path" data-old_color="#000000" fill="#181A82"/></g> </svg>
