<?xml version="1.0"?>
<svg xmlns="http://www.w3.org/2000/svg" height="512px" viewBox="0 -2 512 512" width="512px" class=""><g><path d="m300.921875 436.007812v-166.453124c0-4.140626-3.355469-7.5-7.5-7.5-4.140625 0-7.5 3.359374-7.5 7.5v166.4375h-72.316406c-9.460938 0-17.15625 7.699218-17.15625 17.160156v37.71875c0 9.464844 7.695312 17.160156 17.15625 17.160156h86.988281c9.460938 0 17.160156-7.695312 17.160156-17.160156v-37.71875c0-9.351563-7.523437-16.964844-16.832031-17.144532zm1.832031 54.863282c0 1.191406-.972656 2.160156-2.160156 2.160156h-86.988281c-1.1875 0-2.15625-.96875-2.15625-2.160156v-37.71875c0-1.191406.96875-2.160156 2.15625-2.160156h86.988281c1.1875 0 2.160156.96875 2.160156 2.160156zm0 0" data-original="#000000" class="active-path" data-old_color="#000000" fill="#FFFFFF"/><path d="m504.5 250.195312h-14.03125c-45.582031 0-88.707031-17.261718-121.4375-48.605468-31.144531-29.828125-49.800781-69.460938-52.964844-112.1875 6.671875-2.496094 11.824219-8.058594 13.671875-14.941406h10.511719c1.945312 7.238281 7.546875 13.023437 14.726562 15.304687 7 71.210937 67.246094 126.144531 139.746094 126.144531h9.777344c4.140625 0 7.5-3.359375 7.5-7.5 0-4.144531-3.359375-7.5-7.5-7.5h-9.777344c-64.425781 0-118.023437-48.542968-124.726562-111.644531 6.636718-2.605469 11.710937-8.261719 13.433594-15.207031 10.15625-1.960938 17.855468-10.914063 17.855468-21.699219 0-12.144531-9.886718-22.023437-22.035156-22.023437h-57.433594c-4.140625 0-7.5 3.359374-7.5 7.5 0 4.144531 3.359375 7.5 7.5 7.5h57.433594c3.878906 0 7.035156 3.152343 7.035156 7.101562 0 3.007812-1.90625 5.574219-4.574218 6.570312-3.664063-7.199218-11.21875-12.15625-19.921876-12.15625-8.890624 0-16.574218 5.164063-20.148437 12.609376h-13.292969c-3.570312-7.445313-11.257812-12.609376-20.144531-12.609376s-16.574219 5.164063-20.148437 12.609376h-64.109376c-3.574218-7.445313-11.261718-12.609376-20.148437-12.609376s-16.574219 5.164063-20.144531 12.609376h-13.292969c-3.574219-7.445313-11.261719-12.609376-20.148437-12.609376-8.328126 0-15.597657 4.535157-19.421876 11.230469-1.738281-1.289062-2.875-3.359375-2.875-5.722656 0-3.871094 3.15625-7.023437 7.035157-7.023437h154.429687c4.144532 0 7.5-3.355469 7.5-7.5 0-4.140626-3.355468-7.5-7.5-7.5h-10.28125v-8.351563c0-12.125-9.867187-21.984375-21.996094-21.984375-12.128906 0-21.996093 9.859375-21.996093 21.984375v8.351563h-100.15625c-12.148438 0-22.035157 9.878906-22.035157 22.101562 0 9.878906 6.539063 18.257812 15.519532 21.039062 1.59375 7.28125 6.851562 13.230469 13.765625 15.867188-6.710938 63.0625-60.378907 111.566406-124.921875 111.566406h-9.777344c-4.144531 0-7.5 3.355469-7.5 7.5 0 4.144532 3.355469 7.5 7.5 7.5h9.777344c72.667968 0 133.019531-54.972656 139.960937-126.21875 7.078125-2.328125 12.585938-8.0625 14.507813-15.230468h10.511718c1.847657 6.878906 6.996094 12.441406 13.667969 14.9375-3.230469 42.691406-21.914062 82.308593-53.046875 112.148437-32.738281 31.375-75.832031 48.652344-121.347656 48.652344h-14.03125c-4.144531 0-7.5 3.355469-7.5 7.5 0 4.140625 3.355469 7.5 7.5 7.5h14.03125c49.402344 0 96.183594-18.761719 131.726562-52.824219 34.035157-32.617188 54.375-76.003906 57.6875-122.722656 7.019532-2.351563 12.476563-8.066406 14.390626-15.191406h38.761718v90.1875c-2.28125-.367188-4.617187-.5625-6.996094-.5625-2.382812 0-4.71875.195312-6.996093.5625v-65.691407c0-4.144531-3.359375-7.5-7.5-7.5-4.144531 0-7.5 3.355469-7.5 7.5v71.066407c-13.039063 7.597656-21.828125 21.714843-21.828125 37.851562v203.203125c0 4.144531 3.355468 7.5 7.5 7.5 4.144531 0 7.5-3.355469 7.5-7.5v-203.207031c0-11.535156 6.832031-21.503906 16.664062-26.09375.457032-.148438.894532-.339844 1.304688-.570313 3.355468-1.367187 7.015625-2.125 10.855468-2.125 3.835938 0 7.5.757813 10.851563 2.125.414063.230469.851563.421875 1.308594.570313 9.832031 4.589844 16.664062 14.558594 16.664062 26.09375v29.269531c0 4.144531 3.355469 7.5 7.5 7.5 4.140625 0 7.5-3.355469 7.5-7.5v-29.269531c0-16.136719-8.789062-30.253906-21.828125-37.847656v-95.5625h7.570313c1.910156 7.121093 7.363281 12.832031 14.378906 15.1875 3.25 46.761718 23.558594 90.164062 57.609375 122.773437 35.535156 34.03125 82.347656 52.773437 131.8125 52.773437h14.03125c4.144531 0 7.5-3.355468 7.5-7.5 0-4.144531-3.355469-7.5-7.5-7.5zm-254.394531-228.214843c0-3.851563 3.136719-6.984375 6.996093-6.984375 3.855469 0 6.996094 3.136718 6.996094 6.984375v8.355469h-13.992187zm111.683593 39.871093c4.015626 0 7.28125 3.132813 7.28125 6.984376 0 3.847656-3.265624 6.980468-7.28125 6.980468-4.015624 0-7.277343-3.132812-7.277343-6.980468 0-.234376.011719-.460938.035156-.6875.023437-.140626.050781-.28125.0625-.425782.558594-3.320312 3.5625-5.871094 7.179687-5.871094zm-53.585937 0c4.015625 0 7.277344 3.132813 7.277344 6.984376 0 3.847656-3.265625 6.980468-7.277344 6.980468-4.015625 0-7.28125-3.132812-7.28125-6.980468 0-3.851563 3.265625-6.984376 7.28125-6.984376zm-104.40625 0c4.015625 0 7.28125 3.132813 7.28125 6.984376 0 3.847656-3.265625 6.980468-7.28125 6.980468s-7.277344-3.132812-7.277344-6.980468c0-3.851563 3.261719-6.984376 7.277344-6.984376zm-53.585937 0c4.015624 0 7.277343 3.132813 7.277343 6.984376 0 3.847656-3.265625 6.980468-7.277343 6.980468-4.015626 0-7.28125-3.132812-7.28125-6.980468 0-3.851563 3.265624-6.984376 7.28125-6.984376zm0 0" data-original="#000000" class="active-path" data-old_color="#000000" fill="#FFFFFF"/></g> </svg>
