<?xml version="1.0" encoding="UTF-8"?>
<svg width="10px" height="20px" viewBox="0 0 10 20" version="1.1" xmlns="http://www.w3.org/2000/svg" xmlns:xlink="http://www.w3.org/1999/xlink">
    <!-- Generator: Sketch 55.2 (78181) - https://sketchapp.com -->
    <title>Shape</title>
    <desc>Created with Sketch.</desc>
    <g id="Page-1" stroke="none" stroke-width="1" fill="none" fill-rule="evenodd">
        <g id="Homepage" transform="translate(-1274.000000, -5750.000000)" fill="#D0D7DD">
            <g id="Group" transform="translate(-2.000000, 5676.000000)">
                <g id="4" transform="translate(1276.000000, 16.000000)">
                    <g id="facebook" transform="translate(0.000000, 58.791667)">
                        <path d="M8.71845833,3.41283333 C8.21469444,3.26527778 7.63484722,3.16729167 7.10572222,3.16729167 C6.45094444,3.16729167 5.03879167,3.58459722 5.03879167,4.39384722 L5.03879167,6.33051389 L8.39106944,6.33051389 L8.39106944,9.592875 L5.03879167,9.592875 L5.03879167,18.5949167 L1.66345833,18.5949167 L1.66345833,9.592875 L0,9.592875 L0,6.33051389 L1.66345833,6.33051389 L1.66345833,4.68780556 C1.66345833,2.21048611 2.822,0.150472222 5.61863889,0.150472222 C6.57659722,0.150472222 8.289625,0.200041667 9.22222222,0.519361111 L8.71845833,3.41283333 L8.71845833,3.41283333 Z" id="Shape"></path>
                    </g>
                </g>
            </g>
        </g>
    </g>
</svg>