<?xml version="1.0" encoding="UTF-8"?>
<svg width="22px" height="22px" viewBox="0 0 22 22" version="1.1" xmlns="http://www.w3.org/2000/svg" xmlns:xlink="http://www.w3.org/1999/xlink">
    <!-- Generator: Sketch 55.2 (78181) - https://sketchapp.com -->
    <title>instagram</title>
    <desc>Created with Sketch.</desc>
    <g id="Page-1" stroke="none" stroke-width="1" fill="none" fill-rule="evenodd">
        <g id="Homepage" transform="translate(-1396.000000, -5749.000000)" fill="#D0D7DD">
            <g id="Group" transform="translate(-2.000000, 5676.000000)">
                <g id="4" transform="translate(1276.000000, 16.000000)">
                    <g id="instagram" transform="translate(122.430556, 57.791667)">
                        <path d="M15.0241528,20.75 L5.72584722,20.75 C2.56838889,20.75 0,18.1816111 0,15.0241528 L0,5.72584722 C0,2.56838889 2.56838889,0 5.72584722,0 L15.0241528,0 C18.1816111,0 20.75,2.56838889 20.75,5.72584722 L20.75,15.0241528 C20.75,18.1816111 18.1816111,20.75 15.0241528,20.75 L15.0241528,20.75 Z M18.9090139,15.0241528 L18.9090139,5.72584722 C18.9090139,3.58398611 17.1660139,1.84098611 15.0241528,1.84098611 L5.72584722,1.84098611 C3.58398611,1.84098611 1.84098611,3.58398611 1.84098611,5.72584722 L1.84098611,15.0241528 C1.84098611,17.1660139 3.58398611,18.9090139 5.72584722,18.9090139 L15.0241528,18.9090139 C17.1660139,18.9090139 18.9090139,17.1660139 18.9090139,15.0241528 L18.9090139,15.0241528 L18.9090139,15.0241528 Z M15.946375,6.16736111 C15.5913194,6.16736111 15.2431806,6.02326389 14.991875,5.77195833 C14.7405694,5.52065278 14.5953194,5.17251389 14.5953194,4.81745833 C14.5953194,4.46125 14.7405694,4.11311111 14.991875,3.86295833 C15.2431806,3.6105 15.5913194,3.46755556 15.946375,3.46755556 C16.3014306,3.46755556 16.6507222,3.6105 16.900875,3.86295833 C17.1521806,4.11311111 17.2962778,4.46125 17.2962778,4.81745833 C17.2962778,5.17251389 17.1521806,5.52065278 16.900875,5.77195833 C16.6495694,6.02326389 16.3014306,6.16736111 15.946375,6.16736111 L15.946375,6.16736111 Z M10.375,15.7215833 C7.42619444,15.7215833 5.02841667,13.3238056 5.02841667,10.375 C5.02841667,7.42734722 7.42619444,5.02841667 10.375,5.02841667 C13.3226528,5.02841667 15.7215833,7.42734722 15.7215833,10.375 C15.7215833,13.3238056 13.3226528,15.7215833 10.375,15.7215833 L10.375,15.7215833 Z M10.375,6.86940278 C8.44179167,6.86940278 6.86940278,8.44179167 6.86940278,10.375 C6.86940278,12.3082083 8.44179167,13.8805972 10.375,13.8805972 C12.3082083,13.8805972 13.8805972,12.3082083 13.8805972,10.375 C13.8805972,8.44179167 12.3082083,6.86940278 10.375,6.86940278 L10.375,6.86940278 Z" id="Shape"></path>
                    </g>
                </g>
            </g>
        </g>
    </g>
</svg>