<?xml version="1.0"?>
<svg xmlns="http://www.w3.org/2000/svg" id="line" viewBox="0 0 64 64" width="512px" height="512px"><g><path d="M23.293,51.707A1,1,0,0,0,24,52h4v9a1,1,0,0,0,1,1h6a1,1,0,0,0,1-1V52h4a1,1,0,0,0,.707-.293l6-6A1,1,0,0,0,47,45V17a3.008,3.008,0,0,0-3-3H43V3a1,1,0,0,0-1-1H36a1,1,0,0,0-1,1V14H29V3a1,1,0,0,0-1-1H22a1,1,0,0,0-1,1V14H20a3.008,3.008,0,0,0-3,3V45a1,1,0,0,0,.293.707ZM34,60H30V52h4Zm7-11.414V41H39v9H25V41H23v7.586l-4-4V33.414l4.293,4.293A1,1,0,0,0,24,38H40a1,1,0,0,0,.707-.293L45,33.414V44.586ZM37,4h4V18H37ZM23,4h4V18H23ZM19,17a1,1,0,0,1,1-1h1v3a1,1,0,0,0,1,1h6a1,1,0,0,0,1-1V16h6v3a1,1,0,0,0,1,1h6a1,1,0,0,0,1-1V16h1a1,1,0,0,1,1,1V30.586L39.586,36H24.414L19,30.586Z" data-original="#000000" class="active-path" data-old_color="#000000" fill="#181A82"/><path d="M30,34h4a1,1,0,0,0,1-1V21a1,1,0,0,0-1-1H30a1,1,0,0,0-1,1V33A1,1,0,0,0,30,34Zm1-12h2V32H31Z" data-original="#000000" class="active-path" data-old_color="#000000" fill="#181A82"/></g> </svg>
