<?xml version="1.0" encoding="UTF-8"?>
<svg width="23px" height="15px" viewBox="0 0 23 15" version="1.1" xmlns="http://www.w3.org/2000/svg" xmlns:xlink="http://www.w3.org/1999/xlink">
    <!-- Generator: Sketch 55.2 (78181) - https://sketchapp.com -->
    <title>twitter</title>
    <desc>Created with Sketch.</desc>
    <g id="Page-1" stroke="none" stroke-width="1" fill="none" fill-rule="evenodd">
        <g id="Homepage" transform="translate(-1332.000000, -5752.000000)" fill="#D0D7DD">
            <g id="Group" transform="translate(-2.000000, 5676.000000)">
                <g id="4" transform="translate(1276.000000, 16.000000)">
                    <g id="twitter" transform="translate(58.763889, 60.097222)">
                        <path d="M17.4184722,2.31247222 C17.4184722,2.31247222 17.4184722,2.147625 17.4184722,2.31247222 C16.5561944,1.48708333 15.5221528,1.15738889 14.4869583,1.32223611 L14.4869583,1.32223611 L14.4869583,1.32223611 C15.5221528,1.15738889 16.0385972,0.826541667 16.2115139,0.661694444 C16.2115139,0.496847222 16.2115139,0.332 16.0385972,0.332 C15.5221528,0.332 15.0045556,0.496847222 14.6587222,0.661694444 C15.1763194,0.332 15.3492361,0.167152778 15.3492361,0.00230555556 C14.8316389,0.00230555556 14.3140417,0.332 13.6246806,0.826541667 C13.7964444,0.496847222 13.9693611,0.332 13.7964444,0.167152778 C13.4517639,0.332 13.28,0.496847222 13.1070833,0.826541667 C12.5894861,1.32223611 12.2448056,1.65193056 12.0718889,2.147625 L12.0718889,2.147625 C11.3825278,3.30155556 10.8649306,4.29179167 10.52025,5.44802778 L10.3473333,5.44802778 C10.0026528,4.95233333 9.48505556,4.45779167 8.79569444,4.12694444 C8.10518056,3.63355556 7.24290278,3.30155556 6.20886111,2.80816667 C5.17366667,2.31247222 4.13847222,1.81677778 2.93151389,1.48708333 C2.93151389,2.64216667 3.44911111,3.63355556 4.65606944,4.29179167 L4.65606944,4.29179167 C4.31138889,4.29179167 3.79379167,4.29179167 3.44911111,4.45779167 C3.44911111,5.44802778 4.31138889,6.27226389 5.86418056,6.60311111 L5.86418056,6.60311111 C5.34658333,6.60311111 4.82898611,6.76795833 4.31138889,7.09880556 C4.82898611,8.08788889 5.69126389,8.41758333 7.07113889,8.41758333 C6.89822222,8.58358333 6.55354167,8.74843056 6.55354167,8.74843056 C6.380625,8.91327778 6.20886111,9.24297222 6.380625,9.57266667 C6.72645833,10.0695139 7.07113889,10.2343611 7.93341667,10.2343611 L7.93341667,10.2343611 L7.93341667,10.2343611 C6.72645833,11.3882917 5.17366667,12.0488333 3.44911111,11.8839861 L3.44911111,11.8839861 C2.41391667,11.8839861 1.20695833,11.3882917 0,10.3980556 C1.20695833,12.0488333 2.93151389,13.3699167 5.00190278,14.1941528 C7.41581944,14.8546944 9.82973611,15.0195417 12.0718889,14.359 L12.0718889,14.359 C14.3140417,13.6996111 16.3832778,12.3796806 17.9360694,10.5629028 C18.6254306,9.57266667 19.1430278,8.58358333 19.3159444,7.59334722 C20.5229028,7.59334722 21.3851806,7.2625 21.9027778,6.60311111 L21.9027778,6.60311111 C21.5580972,6.76795833 20.6958194,6.76795833 19.4877083,6.43826389 L19.4877083,6.43826389 L19.4877083,6.43826389 C20.6958194,6.27226389 21.5580972,5.94256944 21.7298611,5.28202778 C20.8675833,5.61172222 20.0053056,5.61172222 19.1430278,5.28202778 C18.9712639,4.12694444 18.4536667,3.13670833 17.4184722,2.31247222 L17.4184722,2.31247222 L17.4184722,2.31247222 Z" id="Shape"></path>
                    </g>
                </g>
            </g>
        </g>
    </g>
</svg>